<svg xmlns="http://www.w3.org/2000/svg" width="500" height="500" viewBox="0 0 500 500">
  <defs>
    <style>
      .cls-1 {
        fill: #1e1e1e;
        fill-rule: evenodd;
      }
    </style>
  </defs>
  <path class="cls-1" d="M191.461,234.164a14.816,14.816,0,0,0,10.115-3.927c7.595-6.454,12.572-16.064,16.866-25.12,0.44,9.883,2.062,19.589,6.119,28.591,4.275,9.488,17.141-2.33,13.642-10.095-7.81-17.332-4.911-37.84-3.737-56.208,0.561-8.782-9.721-9.48-13.164-2.327-7.912,16.437-12.786,33.239-23.032,48.451a5.517,5.517,0,0,0-.349.551c-0.066.071-.219,0.25-0.559,0.669-0.557.684-1.132,1.344-1.713,2.006-0.14-.32-0.278-0.641-0.4-0.974-0.744-2.016-1.2-6.821-1.368-10.4a131.18,131.18,0,0,1,.236-13.881,201.663,201.663,0,0,1,2.762-25.167,6.087,6.087,0,0,0-6.4-7.406c-4.67.462-7.464,5.4-8.228,9.481a201.49,201.49,0,0,0-2.762,25.168c-0.484,8.226-1.076,17.279.414,25.669-7.82-6.81-17.657-11.9-26.48-15.726a222.431,222.431,0,0,0-43.487-13.631c4.865-2.206,9.667-4.513,14.393-6.867,19.1-9.509,38.818-20.944,52.615-37.579,11.3-13.619,16.8-35.346,1.834-48.748C163.492,83,137.8,88.733,120.437,94.425c-22.656,7.426-47.937,19.721-62.685,39.2-2.42,3.2-3.138,9.106.063,12.044,3.415,3.134,7.814.412,10.084-2.586,0.2-.269.788-1.007,0.845-1.1,0.525-.6,1.07-1.181,1.623-1.752,1.47-1.52,3.024-2.956,4.627-4.335a91.406,91.406,0,0,1,10.358-7.61,152.726,152.726,0,0,1,26.918-13.832c15.227-5.976,36.773-13.125,52.466-5.761A16.812,16.812,0,0,1,171.157,114a25.942,25.942,0,0,1,1.369,2.435c0.106,0.209.455,1.12,0.532,1.289,0.228,0.719.409,1.449,0.581,2.185,0.078,0.332.129,0.528,0.163,0.64a1.611,1.611,0,0,0-.02.456c0.006,0.238-.007,1.272,0,1.735-0.06.415-.151,1.133-0.186,1.322s-0.2.859-.3,1.282c-0.188.469-.634,1.71-0.77,2.044-0.078.192-.431,0.94-0.618,1.345-0.246.408-.877,1.513-1.037,1.763a48.406,48.406,0,0,1-3.329,4.575c-0.161.174-.922,1.056-1.081,1.227q-1.106,1.2-2.254,2.349c-1.485,1.486-3.029,2.913-4.612,4.294a113.523,113.523,0,0,1-10.282,7.919,230.136,230.136,0,0,1-25.884,15.217c-7.345,3.756-14.884,7.362-22.574,10.61q0.822-11.421,2.175-22.794c0.3-2.527.642-5.048,0.978-7.57,0-.026.006-0.04,0.009-0.065,0.014-.091.031-0.2,0.053-0.344,0.037-.248.075-0.5,0.114-0.745,0.606-3.818-.1-8.648-4.742-9.279-4.163-.566-8.449,4.116-9.054,7.928-2.012,12.672-3.55,25.6-4.476,38.6-3.652,1.251-7.33,2.4-11.033,3.415-6.628,1.814-10.945,16.73-1.568,17.2q5.835,0.29,11.67.945a300.084,300.084,0,0,0,3.482,51.611c0.677,4.22,4.954,5.929,8.593,4.153,4.059-1.98,6.223-7.155,5.531-11.473a257.968,257.968,0,0,1-2.95-42.117,234.28,234.28,0,0,1,34.09,9.053c9.955,3.448,19.935,7.569,28.84,13.268,7,4.482,13.124,9.738,16.348,16.785a2.963,2.963,0,0,0,.216.427c0.02,0.091.069,0.281,0.18,0.661,0.259,0.883.478,1.758,0.66,2.661,0.01,0.05.018,0.084,0.026,0.121,0.027,0.287.058,0.576,0.06,0.862,0,0.462.011,0.929,0.019,1.392,0,0.126,0,.229.008,0.321-0.127.948-.329,1.865-0.529,2.8-0.009.039-.013,0.063-0.02,0.095-0.107.312-.209,0.629-0.338,0.932-0.389.91-.771,1.816-1.21,2.7,0.021-.135-1.3,2.112-1.551,2.476-5.867,8.649-13.541,14.707-22.525,19.208-18.98,9.51-42.893,12.131-64.138,10.707-20.212-1.354-48.25-7.994-55.278-29.029-3.56-10.653-16.5-.264-13.721,8.051,7.962,23.828,32.1,33.867,55.185,37.283,24.464,3.62,51.63,1.122,74.591-8.329,20.287-8.349,44.855-28.127,43.765-52.479A32.5,32.5,0,0,0,191.461,234.164Zm4.654-16.361a0.026,0.026,0,0,0,.009,0c0.024,0.063.053,0.133,0.089,0.216l-0.1-.221h0Zm-1.354-.156c0,0.007-.011.013-0.016,0.019a2.543,2.543,0,0,0-.329.078C194.538,217.708,194.65,217.677,194.761,217.647Zm16.429,75.422c0.013,0.04.026,0.08,0.04,0.12-0.011-.037-0.023-0.073-0.038-0.122A0,0,0,0,0,211.19,293.069ZM477.3,397.513a470.9,470.9,0,0,0-81.309-73.036c-10.183-7.2-20.71-13.978-31.548-20.217,13.394-12.09,22.282-28.583,22.635-47.421,0.347-18.516-10.431-31.321-27.5-37.108a81.025,81.025,0,0,0-16.561-3.624c2.075-2.9,4.222-5.732,6.385-8.512a245.7,245.7,0,0,1,16.328-19.117c4.669-4.875.123-17.009-7.187-15.545-15.829,3.17-33.317,1.1-49.225-.851a6.165,6.165,0,0,0-2.122.092c1.838-4.96-5.542-9.5-9.836-9.117a232.791,232.791,0,0,1-34.42.58A103.505,103.505,0,0,1,250.3,162.42c-3.834-.6-9.175.339-10.159,4.829-0.933,4.263,3.778,7.833,7.474,8.413a195.428,195.428,0,0,0,35.12,2.092q-4.263,6.615-8.321,13.355c-6.775,11.257-15.555,24.34-17.576,37.6-0.019.126-.021,0.248-0.033,0.372-2.451.956-4.876,1.964-7.261,3.042a94.68,94.68,0,0,0-9.737,5.152c-8.064,4.844-4.467,19.732,5.582,13.7l0.141-.086,0.166-.087c0.6-.317,1.2-0.646,1.8-0.957,1.507-.774,3.042-1.5,4.591-2.184,3.2-1.424,6.475-2.693,9.779-3.863a179.693,179.693,0,0,1,23.173-6.5,206.419,206.419,0,0,1,31.063-4.55c-0.271.778-.536,1.559-0.781,2.345-1.323,4.248-.766,9.421,2.94,12.395,2.985,2.4,7.984,1.965,9.284-2.208a80.426,80.426,0,0,1,5.173-12.556c1.576,0.1,3.148.222,4.714,0.388,7.51,0.8,14.882,2.354,20.856,5.336A38.319,38.319,0,0,1,362.7,241a11.617,11.617,0,0,1,2.908,2.311,31.382,31.382,0,0,1,2.94,3.358,8.675,8.675,0,0,1,1.82,3.108c2.545,5.86,2.5,12.273.962,18.663-2.3,9.512-6.306,16.934-13.2,23.1a63.224,63.224,0,0,1-7.026,5.41,296.485,296.485,0,0,0-52.255-21.37c-25.76-7.646-56.765-12.925-82.595-2.506-8.29,3.344-16.381,9.293-19.055,18.224-2.771,9.255,2.095,17.1,9.365,22.473,10.8,7.975,25.315,11.428,38.22,14.032a165.5,165.5,0,0,0,32.949,2.953c23.716-.011,49.123-3.755,70.3-15.069,8.155,4.458,16.134,9.226,23.914,14.231a446.962,446.962,0,0,1,77.743,63.753q8.152,8.351,15.862,17.117C471.9,418,483,403.985,477.3,397.513ZM303.279,217.46a238.274,238.274,0,0,0-26.092,5.1c3.519-8.988,9.381-17.657,14.1-25.451q5.567-9.192,11.515-18.161c-0.17,4.75,2.377,10.292,7.037,10.862a278.006,278.006,0,0,0,30.729,2.479c-0.717.911-1.443,1.816-2.15,2.733a201.329,201.329,0,0,0-14.141,20.441A208.066,208.066,0,0,0,303.279,217.46Zm-92.236,74.493a2.082,2.082,0,0,1-.019.355A0.894,0.894,0,0,1,211.043,291.953Zm-0.035.566h0c0-.008-0.005-0.016-0.007-0.023S211.005,292.511,211.008,292.519Zm-0.033.845c-0.018.125-.016,0.1,0,0h0Zm86.9,19.64c-22.143,2.112-44.446.231-65.654-6.711a63.729,63.729,0,0,1-14.583-6.688A18.8,18.8,0,0,1,214,296.861c-0.561-.553-1.062-1.15-1.583-1.737a10.467,10.467,0,0,1-.744-1c-0.038-.055-0.067-0.1-0.091-0.13,0.2,0.279.7,1,.012-0.018a3.449,3.449,0,0,1-.368-0.792,0.986,0.986,0,1,1-.048-0.112l0.008-.008c-0.018-.053-0.037-0.107-0.054-0.159l-0.012-.048c0.026,0.077.049,0.147,0.068,0.2,0.171-.178.349-0.366,0.486-0.515,0.37-.3.913-0.742,1.065-0.846,0.268-.184,1.7-1.067,1.59-1.039,8.153-4.427,17.724-5.631,27.028-6.052,13.568-.615,27.187,1.538,40.345,4.7a254.4,254.4,0,0,1,48.7,17.412A153.474,153.474,0,0,1,297.879,313Z"/>
</svg>
